<?xml version="1.0" encoding="utf-8"?>
<svg version="1.1" xmlns:xlink="http://www.w3.org/1999/xlink" width="20px" height="23px" xmlns="http://www.w3.org/2000/svg">
  <g transform="matrix(1 0 0 1 -782 -474 )">
    <path d="M 19.6563573883161 1.38276553106213  C 19.885452462772 1.53640614562458  20 1.7130928523714  20 1.9128256513026  C 20 2.1125584502338  19.885452462772 2.28924515698062  19.6563573883161 2.44288577154309  L 6.15120274914079 11.5  L 19.6563573883161 20.5571142284569  C 19.885452462772 20.7107548430194  20 20.8874415497662  20 21.0871743486974  C 20 21.2869071476286  19.885452462772 21.4635938543754  19.6563573883161 21.6172344689379  L 17.9381443298969 22.7695390781563  C 17.709049255441 22.9231796927188  17.4455899198167 23  17.1477663230241 23  C 16.8499427262313 23  16.5864833906071 22.9231796927188  16.3573883161512 22.7695390781563  L 0.34364261168389 12.0300601202405  C 0.114547537227963 11.876419505678  0 11.6997327989312  0 11.5  C 0 11.3002672010688  0.114547537227963 11.123580494322  0.34364261168389 10.9699398797595  L 16.3573883161512 0.230460921843688  C 16.5864833906071 0.0768203072812355  16.8499427262313 0  17.1477663230241 0  C 17.4455899198167 0  17.709049255441 0.0768203072812355  17.9381443298969 0.230460921843688  L 19.6563573883161 1.38276553106213  Z " fill-rule="nonzero" fill="#ffffff" stroke="none" transform="matrix(1 0 0 1 782 474 )" />
  </g>
</svg>