<?xml version="1.0" encoding="utf-8"?>
<svg version="1.1" xmlns:xlink="http://www.w3.org/1999/xlink" width="25px" height="25px" xmlns="http://www.w3.org/2000/svg">
  <g transform="matrix(1 0 0 1 -1 0 )">
    <path d="M 14.4368489583333 20.6868489583333  C 14.5345052083333 20.5891927083333  14.5833333333333 20.4644097222222  14.5833333333333 20.3125  L 14.5833333333333 17.1875  C 14.5833333333333 17.0355902777778  14.5345052083333 16.9108072916667  14.4368489583333 16.8131510416667  C 14.3391927083333 16.7154947916667  14.2144097222222 16.6666666666667  14.0625 16.6666666666667  L 10.9375 16.6666666666667  C 10.7855902777778 16.6666666666667  10.6608072916667 16.7154947916667  10.5631510416667 16.8131510416667  C 10.4654947916667 16.9108072916667  10.4166666666667 17.0355902777778  10.4166666666667 17.1875  L 10.4166666666667 20.3125  C 10.4166666666667 20.4644097222222  10.4654947916667 20.5891927083333  10.5631510416667 20.6868489583333  C 10.6608072916667 20.7845052083333  10.7855902777778 20.8333333333333  10.9375 20.8333333333333  L 14.0625 20.8333333333333  C 14.2144097222222 20.8333333333333  14.3391927083333 20.7845052083333  14.4368489583333 20.6868489583333  Z M 18.5465494791667 10.693359375  C 18.6821831597222 10.2918836805556  18.75 9.85243055555556  18.75 9.375  C 18.75 8.42013888888889  18.4488932291667 7.53580729166667  17.8466796875 6.72200520833333  C 17.2444661458333 5.908203125  16.4930555555556 5.27886284722222  15.5924479166667 4.833984375  C 14.6918402777778 4.38910590277778  13.76953125 4.16666666666667  12.8255208333333 4.16666666666667  C 10.1888020833333 4.16666666666667  8.17599826388889 5.322265625  6.787109375 7.63346354166667  C 6.62434895833333 7.89388020833333  6.66775173611111 8.12174479166667  6.91731770833333 8.31705729166667  L 9.06575520833333 9.94466145833333  C 9.14171006944445 10.009765625  9.24479166666667 10.0423177083333  9.375 10.0423177083333  C 9.54861111111111 10.0423177083333  9.68424479166667 9.97721354166667  9.78190104166667 9.84700520833333  C 10.3569878472222 9.10915798611111  10.8235677083333 8.61002604166667  11.181640625 8.349609375  C 11.5505642361111 8.08919270833333  12.0171440972222 7.958984375  12.5813802083333 7.958984375  C 13.1022135416667 7.958984375  13.5660807291667 8.10004340277778  13.9729817708333 8.38216145833333  C 14.3798828125 8.66427951388889  14.5833333333333 8.984375  14.5833333333333 9.34244791666667  C 14.5833333333333 9.75477430555556  14.4748263888889 10.0857204861111  14.2578125 10.3352864583333  C 14.0407986111111 10.5848524305556  13.671875 10.8289930555556  13.1510416666667 11.0677083333333  C 12.4674479166667 11.3715277777778  11.8408203125 11.8408203125  11.2711588541667 12.4755859375  C 10.7014973958333 13.1103515625  10.4166666666667 13.7912326388889  10.4166666666667 14.5182291666667  L 10.4166666666667 15.1041666666667  C 10.4166666666667 15.2560763888889  10.4654947916667 15.380859375  10.5631510416667 15.478515625  C 10.6608072916667 15.576171875  10.7855902777778 15.625  10.9375 15.625  L 14.0625 15.625  C 14.2144097222222 15.625  14.3391927083333 15.576171875  14.4368489583333 15.478515625  C 14.5345052083333 15.380859375  14.5833333333333 15.2560763888889  14.5833333333333 15.1041666666667  C 14.5833333333333 14.8980034722222  14.6999782986111 14.6294487847222  14.9332682291667 14.2985026041667  C 15.1665581597222 13.9675564236111  15.4622395833333 13.6990017361111  15.8203125 13.4928385416667  C 16.1675347222222 13.2975260416667  16.4333767361111 13.1429036458333  16.6178385416667 13.0289713541667  C 16.8023003472222 12.9150390625  17.0518663194444 12.7251519097222  17.3665364583333 12.4593098958333  C 17.6812065972222 12.1934678819444  17.9226345486111 11.9330512152778  18.0908203125 11.6780598958333  C 18.2590060763889 11.4230685763889  18.4109157986111 11.0948350694444  18.5465494791667 10.693359375  Z M 23.3235677083333 6.2255859375  C 24.4411892361111 8.14073350694444  25 10.2322048611111  25 12.5  C 25 14.7677951388889  24.4411892361111 16.8592664930556  23.3235677083333 18.7744140625  C 22.2059461805556 20.6895616319444  20.6895616319444 22.2059461805556  18.7744140625 23.3235677083333  C 16.8592664930556 24.4411892361111  14.7677951388889 25  12.5 25  C 10.2322048611111 25  8.14073350694444 24.4411892361111  6.2255859375 23.3235677083333  C 4.31043836805556 22.2059461805556  2.79405381944444 20.6895616319444  1.67643229166667 18.7744140625  C 0.558810763888889 16.8592664930556  0 14.7677951388889  0 12.5  C 0 10.2322048611111  0.558810763888889 8.14073350694444  1.67643229166667 6.2255859375  C 2.79405381944444 4.31043836805556  4.31043836805556 2.79405381944444  6.2255859375 1.67643229166667  C 8.14073350694444 0.558810763888887  10.2322048611111 0  12.5 0  C 14.7677951388889 0  16.8592664930556 0.558810763888887  18.7744140625 1.67643229166667  C 20.6895616319444 2.79405381944444  22.2059461805556 4.31043836805556  23.3235677083333 6.2255859375  Z " fill-rule="nonzero" fill="#169bd5" stroke="none" transform="matrix(1 0 0 1 1 0 )" />
  </g>
</svg>