<?xml version="1.0" encoding="utf-8"?>
<svg version="1.1" xmlns:xlink="http://www.w3.org/1999/xlink" width="10px" height="20px" xmlns="http://www.w3.org/2000/svg">
  <g transform="matrix(1 0 0 1 -431 -278 )">
    <path d="M 9.814453125 12.0880681818182  C 9.93815104166667 12.2679924242424  10 12.4810606060606  10 12.7272727272727  C 10 12.9734848484848  9.93815104166667 13.186553030303  9.814453125 13.3664772727273  L 5.439453125 19.7301136363636  C 5.31575520833333 19.9100378787879  5.16927083333333 20  5 20  C 4.83072916666667 20  4.68424479166667 19.9100378787879  4.560546875 19.7301136363636  L 0.185546875 13.3664772727273  C 0.0618489583333333 13.186553030303  0 12.9734848484848  0 12.7272727272727  C 0 12.4810606060606  0.0618489583333333 12.2679924242424  0.185546875 12.0880681818182  C 0.309244791666667 11.9081439393939  0.455729166666667 11.8181818181818  0.625 11.8181818181818  L 9.375 11.8181818181818  C 9.54427083333333 11.8181818181818  9.69075520833333 11.9081439393939  9.814453125 12.0880681818182  Z M 9.814453125 6.63352272727273  C 9.93815104166667 6.81344696969697  10 7.02651515151515  10 7.27272727272727  C 10 7.51893939393939  9.93815104166667 7.73200757575758  9.814453125 7.91193181818182  C 9.69075520833333 8.09185606060606  9.54427083333333 8.18181818181818  9.375 8.18181818181818  L 0.625 8.18181818181818  C 0.455729166666667 8.18181818181818  0.309244791666667 8.09185606060606  0.185546875 7.91193181818182  C 0.0618489583333333 7.73200757575758  0 7.51893939393939  0 7.27272727272727  C 0 7.02651515151515  0.0618489583333333 6.81344696969697  0.185546875 6.63352272727273  L 4.560546875 0.269886363636365  C 4.68424479166667 0.0899621212121193  4.83072916666667 0  5 0  C 5.16927083333333 0  5.31575520833333 0.0899621212121193  5.439453125 0.269886363636365  L 9.814453125 6.63352272727273  Z " fill-rule="nonzero" fill="#989898" stroke="none" transform="matrix(1 0 0 1 431 278 )" />
  </g>
</svg>