<?xml version="1.0" encoding="utf-8"?>
<svg version="1.1" xmlns:xlink="http://www.w3.org/1999/xlink" width="15px" height="15px" xmlns="http://www.w3.org/2000/svg">
  <g transform="matrix(1 0 0 1 -865 -162 )">
    <path d="M 9.19921875 9.19921875  C 9.98948317307691 8.40895432692309  10.3846153846154 7.45793269230768  10.3846153846154 6.34615384615384  C 10.3846153846154 5.234375  9.98948317307691 4.28335336538461  9.19921875 3.49308894230768  C 8.40895432692309 2.70282451923077  7.45793269230774 2.30769230769232  6.34615384615381 2.30769230769232  C 5.234375 2.30769230769232  4.28335336538464 2.70282451923077  3.49308894230762 3.49308894230768  C 2.70282451923072 4.28335336538461  2.30769230769238 5.234375  2.30769230769238 6.34615384615384  C 2.30769230769238 7.45793269230768  2.70282451923072 8.40895432692309  3.49308894230762 9.19921875  C 4.28335336538464 9.98948317307691  5.234375 10.3846153846154  6.34615384615381 10.3846153846154  C 7.45793269230774 10.3846153846154  8.40895432692309 9.98948317307691  9.19921875 9.19921875  Z M 14.6664663461538 13.0348557692307  C 14.8888221153846 13.2572115384615  15 13.5276442307692  15 13.8461538461538  C 15 14.1586538461539  14.8858173076924 14.4290865384615  14.657451923077 14.6574519230769  C 14.4290865384615 14.8858173076923  14.1586538461538 15  13.8461538461538 15  C 13.5216346153846 15  13.251201923077 14.8858173076923  13.0348557692307 14.6574519230769  L 9.94290865384619 11.5745192307693  C 8.8671875 12.3197115384615  7.66826923076928 12.6923076923077  6.34615384615381 12.6923076923077  C 5.48677884615381 12.6923076923077  4.66496394230762 12.5255408653846  3.88070913461536 12.1920072115385  C 3.09645432692298 11.8584735576923  2.42037259615381 11.4077524038462  1.85246394230762 10.83984375  C 1.28455528846166 10.2719350961538  0.833834134615358 9.59585336538458  0.500300480769283 8.81159855769232  C 0.166766826922981 8.02734375  0 7.20552884615384  0 6.34615384615384  C 0 5.48677884615384  0.166766826922981 4.66496394230768  0.500300480769283 3.88070913461542  C 0.833834134615358 3.09645432692309  1.28455528846166 2.42037259615384  1.85246394230762 1.85246394230768  C 2.42037259615381 1.28455528846155  3.09645432692298 0.833834134615415  3.88070913461536 0.500300480769255  C 4.66496394230762 0.166766826923094  5.48677884615381 0  6.34615384615381 0  C 7.20552884615381 0  8.02734375 0.166766826923094  8.81159855769238 0.500300480769255  C 9.59585336538464 0.833834134615415  10.2719350961538 1.28455528846155  10.83984375 1.85246394230768  C 11.4077524038462 2.42037259615384  11.8584735576924 3.09645432692309  12.1920072115383 3.88070913461542  C 12.5255408653846 4.66496394230768  12.6923076923076 5.48677884615384  12.6923076923076 6.34615384615384  C 12.6923076923076 7.66826923076923  12.3197115384615 8.8671875  11.5745192307693 9.94290865384616  L 14.6664663461538 13.0348557692307  Z " fill-rule="nonzero" fill="#ffffff" stroke="none" transform="matrix(1 0 0 1 865 162 )" />
  </g>
</svg>