<?xml version="1.0" encoding="utf-8"?>
<svg version="1.1" xmlns:xlink="http://www.w3.org/1999/xlink" width="18px" height="23px" xmlns="http://www.w3.org/2000/svg">
  <g transform="matrix(1 0 0 1 -661 -405 )">
    <path d="M 17.6907216494845 10.9699398797595  C 17.8969072164948 11.123580494322  18 11.3002672010688  18 11.5  C 18 11.6997327989312  17.8969072164948 11.876419505678  17.6907216494845 12.0300601202405  L 3.27835051546394 22.7695390781563  C 3.07216494845361 22.9231796927188  2.83505154639179 23  2.56701030927827 23  C 2.29896907216496 23  2.06185567010314 22.9231796927188  1.8556701030928 22.7695390781563  L 0.309278350515501 21.6172344689379  C 0.103092783505167 21.4635938543754  0 21.2869071476286  0 21.0871743486974  C 0 20.8874415497662  0.103092783505167 20.7107548430194  0.309278350515501 20.5571142284569  L 12.4639175257733 11.5  L 0.309278350515501 2.44288577154309  C 0.103092783505167 2.28924515698062  0 2.1125584502338  0 1.9128256513026  C 0 1.7130928523714  0.103092783505167 1.53640614562458  0.309278350515501 1.38276553106213  L 1.8556701030928 0.230460921843688  C 2.06185567010314 0.0768203072812355  2.29896907216496 0  2.56701030927827 0  C 2.83505154639179 0  3.07216494845361 0.0768203072812355  3.27835051546394 0.230460921843688  L 17.6907216494845 10.9699398797595  Z " fill-rule="nonzero" fill="#ffffff" stroke="none" transform="matrix(1 0 0 1 661 405 )" />
  </g>
</svg>