<?xml version="1.0" encoding="utf-8"?>
<svg version="1.1" xmlns:xlink="http://www.w3.org/1999/xlink" width="20px" height="23px" xmlns="http://www.w3.org/2000/svg">
  <g transform="matrix(1 0 0 1 -883 -474 )">
    <path d="M 19.6563573883161 10.9699398797595  C 19.885452462772 11.123580494322  20 11.3002672010688  20 11.5  C 20 11.6997327989312  19.885452462772 11.876419505678  19.6563573883161 12.0300601202405  L 3.64261168384883 22.7695390781563  C 3.4135166093929 22.9231796927188  3.15005727376865 23  2.85223367697586 23  C 2.55441008018329 23  2.29095074455904 22.9231796927188  2.06185567010311 22.7695390781563  L 0.34364261168389 21.6172344689379  C 0.114547537227963 21.4635938543754  0 21.2869071476286  0 21.0871743486974  C 0 20.8874415497662  0.114547537227963 20.7107548430194  0.34364261168389 20.5571142284569  L 13.8487972508592 11.5  L 0.34364261168389 2.44288577154309  C 0.114547537227963 2.28924515698062  0 2.1125584502338  0 1.9128256513026  C 0 1.7130928523714  0.114547537227963 1.53640614562458  0.34364261168389 1.38276553106213  L 2.06185567010311 0.230460921843688  C 2.29095074455904 0.0768203072812355  2.55441008018329 0  2.85223367697586 0  C 3.15005727376865 0  3.4135166093929 0.0768203072812355  3.64261168384883 0.230460921843688  L 19.6563573883161 10.9699398797595  Z " fill-rule="nonzero" fill="#ffffff" stroke="none" transform="matrix(1 0 0 1 883 474 )" />
  </g>
</svg>