<?xml version="1.0" encoding="utf-8"?>
<svg version="1.1" xmlns:xlink="http://www.w3.org/1999/xlink" width="12px" height="12px" viewBox="245 305.5  12 12" xmlns="http://www.w3.org/2000/svg">
  <path d="M 251 305.5  C 254.36 305.5  257 308.14  257 311.5  C 257 314.86  254.36 317.5  251 317.5  C 247.64 317.5  245 314.86  245 311.5  C 245 308.14  247.64 305.5  251 305.5  Z " fill-rule="nonzero" fill="#ffffff" stroke="none" />
  <path d="M 251 306  C 254.08 306  256.5 308.42  256.5 311.5  C 256.5 314.58  254.08 317  251 317  C 247.92 317  245.5 314.58  245.5 311.5  C 245.5 308.42  247.92 306  251 306  Z " stroke-width="1" stroke="#797979" fill="none" />
  <path d="M 251 314.5  C 249.32 314.5  248 313.18  248 311.5  C 248 309.82  249.32 308.5  251 308.5  C 252.68 308.5  254 309.82  254 311.5  C 254 313.18  252.68 314.5  251 314.5  " fill-rule="nonzero" fill="#797979" stroke="none" />
</svg>