<?xml version="1.0" encoding="utf-8"?>
<svg version="1.1" xmlns:xlink="http://www.w3.org/1999/xlink" width="12px" height="12px" viewBox="245 272.5  12 12" xmlns="http://www.w3.org/2000/svg">
  <path d="M 251 272.5  C 254.36 272.5  257 275.14  257 278.5  C 257 281.86  254.36 284.5  251 284.5  C 247.64 284.5  245 281.86  245 278.5  C 245 275.14  247.64 272.5  251 272.5  Z " fill-rule="nonzero" fill="#ffffff" stroke="none" />
  <path d="M 251 273  C 254.08 273  256.5 275.42  256.5 278.5  C 256.5 281.58  254.08 284  251 284  C 247.92 284  245.5 281.58  245.5 278.5  C 245.5 275.42  247.92 273  251 273  Z " stroke-width="1" stroke="#797979" fill="none" />
  <path d="M 251 281.5  C 249.32 281.5  248 280.18  248 278.5  C 248 276.82  249.32 275.5  251 275.5  C 252.68 275.5  254 276.82  254 278.5  C 254 280.18  252.68 281.5  251 281.5  " fill-rule="nonzero" fill="#797979" stroke="none" />
</svg>