<?xml version="1.0" encoding="utf-8"?>
<svg version="1.1" xmlns:xlink="http://www.w3.org/1999/xlink" width="18px" height="23px" xmlns="http://www.w3.org/2000/svg">
  <g transform="matrix(1 0 0 1 -571 -405 )">
    <path d="M 17.6907216494845 1.38276553106213  C 17.8969072164948 1.53640614562458  18 1.7130928523714  18 1.9128256513026  C 18 2.1125584502338  17.8969072164948 2.28924515698062  17.6907216494845 2.44288577154309  L 5.53608247422671 11.5  L 17.6907216494845 20.5571142284569  C 17.8969072164948 20.7107548430194  18 20.8874415497662  18 21.0871743486974  C 18 21.2869071476286  17.8969072164948 21.4635938543754  17.6907216494845 21.6172344689379  L 16.1443298969072 22.7695390781563  C 15.9381443298969 22.9231796927188  15.701030927835 23  15.4329896907217 23  C 15.1649484536082 23  14.9278350515464 22.9231796927188  14.7216494845361 22.7695390781563  L 0.309278350515501 12.0300601202405  C 0.103092783505167 11.876419505678  0 11.6997327989312  0 11.5  C 0 11.3002672010688  0.103092783505167 11.123580494322  0.309278350515501 10.9699398797595  L 14.7216494845361 0.230460921843688  C 14.9278350515464 0.0768203072812355  15.1649484536082 0  15.4329896907217 0  C 15.701030927835 0  15.9381443298969 0.0768203072812355  16.1443298969072 0.230460921843688  L 17.6907216494845 1.38276553106213  Z " fill-rule="nonzero" fill="#ffffff" stroke="none" transform="matrix(1 0 0 1 571 405 )" />
  </g>
</svg>