<?xml version="1.0" encoding="utf-8"?>
<svg version="1.1" xmlns:xlink="http://www.w3.org/1999/xlink" width="15px" height="15px" xmlns="http://www.w3.org/2000/svg">
  <g transform="matrix(1 0 0 1 -951 -162 )">
    <path d="M 14.619140625 0.673828125  C 14.873046875 0.784505208333329  15 0.9765625  15 1.25  L 15 5.625  C 15 5.79427083333333  14.9381510416667 5.94075520833333  14.814453125 6.064453125  C 14.6907552083333 6.18815104166667  14.5442708333333 6.25  14.375 6.25  L 10 6.25  C 9.7265625 6.25  9.53450520833326 6.11979166666666  9.423828125 5.859375  C 9.31315104166674 5.60546875  9.35872395833326 5.380859375  9.560546875 5.185546875  L 10.908203125 3.837890625  C 9.94466145833326 2.94596354166666  8.80859375 2.5  7.5 2.5  C 6.82291666666674 2.5  6.1767578125 2.6318359375  5.5615234375 2.8955078125  C 4.9462890625 3.1591796875  4.4140625 3.515625  3.96484375 3.96484375  C 3.515625 4.4140625  3.1591796875 4.9462890625  2.8955078125 5.5615234375  C 2.6318359375 6.1767578125  2.5 6.82291666666666  2.5 7.5  C 2.5 8.17708333333334  2.6318359375 8.8232421875  2.8955078125 9.4384765625  C 3.1591796875 10.0537109375  3.515625 10.5859375  3.96484375 11.03515625  C 4.4140625 11.484375  4.9462890625 11.8408203125  5.5615234375 12.1044921875  C 6.1767578125 12.3681640625  6.82291666666674 12.5  7.5 12.5  C 8.27473958333326 12.5  9.00716145833326 12.3307291666667  9.697265625 11.9921875  C 10.3873697916667 11.6536458333333  10.9700520833333 11.1751302083333  11.4453125 10.556640625  C 11.4908854166667 10.4915364583333  11.5657552083333 10.4524739583333  11.669921875 10.439453125  C 11.7610677083333 10.439453125  11.8424479166667 10.46875  11.9140625 10.52734375  L 13.251953125 11.875  C 13.310546875 11.9270833333333  13.3414713541667 11.9938151041667  13.3447265625 12.0751953125  C 13.3479817708333 12.1565755208333  13.3235677083333 12.2298177083333  13.271484375 12.294921875  C 12.5618489583333 13.154296875  11.7024739583333 13.8199869791667  10.693359375 14.2919921875  C 9.68424479166674 14.7639973958333  8.61979166666674 15  7.5 15  C 6.484375 15  5.51432291666674 14.8014322916667  4.58984375 14.404296875  C 3.66536458333326 14.0071614583333  2.86783854166674 13.4733072916667  2.197265625 12.802734375  C 1.52669270833326 12.1321614583333  0.992838541666743 11.3346354166667  0.595703125 10.41015625  C 0.198567708333258 9.48567708333334  0 8.515625  0 7.5  C 0 6.484375  0.198567708333258 5.51432291666667  0.595703125 4.58984375  C 0.992838541666743 3.66536458333333  1.52669270833326 2.86783854166667  2.197265625 2.197265625  C 2.86783854166674 1.52669270833333  3.66536458333326 0.992838541666671  4.58984375 0.595703125  C 5.51432291666674 0.198567708333329  6.484375 0  7.5 0  C 8.45703125 0  9.38313802083326 0.1806640625  10.2783203125 0.5419921875  C 11.1735026041667 0.9033203125  11.9694010416667 1.41276041666667  12.666015625 2.0703125  L 13.935546875 0.810546875  C 14.1243489583333 0.608723958333329  14.3522135416667 0.563151041666671  14.619140625 0.673828125  Z " fill-rule="nonzero" fill="#666666" stroke="none" transform="matrix(1 0 0 1 951 162 )" />
  </g>
</svg>